# Blender v2.79 (sub 0) OBJ File: 'shark_fin.blend'
# www.blender.org
mtllib shark_fin.mtl
o Cube
v 1.188194 0.057372 -0.333062
v 1.226490 0.038224 0.166017
v -0.842082 0.027096 0.166016
v -0.811806 0.057372 -0.333062
v -0.830955 2.095669 0.166016
v -0.811806 2.057372 -0.333062
vn 0.0027 -0.9988 -0.0495
vn -0.0000 0.0000 1.0000
vn -0.9988 0.0027 -0.0495
vn 0.0000 0.0000 -1.0000
vn 0.7068 0.7068 -0.0271
usemtl Material
s off
f 1//1 2//1 3//1 4//1
f 2//2 5//2 3//2
f 3//3 5//3 6//3 4//3
f 1//4 4//4 6//4
f 1//5 6//5 5//5 2//5
